<svg xmlns="http://www.w3.org/2000/svg" width="53" height="38" viewBox="0 0 53 38" fill="none"><g clip-path="url(#clip0_1_5)"><path d="M45.5 22.5V22H45H37.5C33.6394 22 30.5 18.8606 30.5 15V7.5C30.5 3.63942 33.6394 0.5 37.5 0.5H45C48.8606 0.5 52 3.63942 52 7.5V11.25V15V23.4375C52 30.9309 45.9309 37 38.4375 37H37.5C35.7019 37 34.25 35.5481 34.25 33.75C34.25 31.9519 35.7019 30.5 37.5 30.5H38.4375C42.3347 30.5 45.5 27.3347 45.5 23.4375V22.5ZM15.5 22.5V22H15H7.5C3.63942 22 0.5 18.8606 0.5 15V7.5C0.5 3.63942 3.63942 0.5 7.5 0.5H15C18.8606 0.5 22 3.63942 22 7.5V11.25V15V23.4375C22 30.9309 15.9309 37 8.4375 37H7.5C5.70192 37 4.25 35.5481 4.25 33.75C4.25 31.9519 5.70192 30.5 7.5 30.5H8.4375C12.3347 30.5 15.5 27.3347 15.5 23.4375V22.5Z" stroke="#E3FF04"></path></g><defs><clipPath id="clip0_1_5"><rect width="53" height="38" fill="white"></rect></clipPath></defs></svg>